<svg width="25" height="24" viewBox="0 0 25 24" fill="none" xmlns="http://www.w3.org/2000/svg">
<path d="M12.5001 8.87579C10.7798 8.87579 9.37589 10.2797 9.37589 12C9.37589 13.7203 10.7798 15.1242 12.5001 15.1242C14.2204 15.1242 15.6243 13.7203 15.6243 12C15.6243 10.2797 14.2204 8.87579 12.5001 8.87579ZM21.8704 12C21.8704 10.7063 21.8821 9.42423 21.8095 8.13283C21.7368 6.63283 21.3946 5.30158 20.2978 4.2047C19.1985 3.10548 17.8696 2.76564 16.3696 2.69298C15.0759 2.62033 13.7939 2.63204 12.5025 2.63204C11.2087 2.63204 9.92667 2.62033 8.63527 2.69298C7.13527 2.76564 5.80402 3.10783 4.70714 4.2047C3.60792 5.30392 3.26808 6.63283 3.19542 8.13283C3.12277 9.42658 3.13449 10.7086 3.13449 12C3.13449 13.2914 3.12277 14.5758 3.19542 15.8672C3.26808 17.3672 3.61027 18.6985 4.70714 19.7953C5.80636 20.8945 7.13527 21.2344 8.63527 21.307C9.92902 21.3797 11.211 21.368 12.5025 21.368C13.7962 21.368 15.0782 21.3797 16.3696 21.307C17.8696 21.2344 19.2009 20.8922 20.2978 19.7953C21.397 18.6961 21.7368 17.3672 21.8095 15.8672C21.8845 14.5758 21.8704 13.2938 21.8704 12ZM12.5001 16.807C9.83995 16.807 7.69308 14.6602 7.69308 12C7.69308 9.33986 9.83995 7.19298 12.5001 7.19298C15.1603 7.19298 17.3071 9.33986 17.3071 12C17.3071 14.6602 15.1603 16.807 12.5001 16.807ZM17.504 8.11876C16.8829 8.11876 16.3814 7.6172 16.3814 6.99611C16.3814 6.37501 16.8829 5.87345 17.504 5.87345C18.1251 5.87345 18.6267 6.37501 18.6267 6.99611C18.6269 7.14359 18.5979 7.28966 18.5416 7.42595C18.4852 7.56224 18.4026 7.68607 18.2983 7.79036C18.194 7.89464 18.0701 7.97733 17.9339 8.03368C17.7976 8.09004 17.6515 8.11895 17.504 8.11876Z" fill="#1E1E1E"/>
</svg>
