<svg width="12" height="12" viewBox="0 0 12 12" fill="none" xmlns="http://www.w3.org/2000/svg">
<path d="M0.840911 1.8291C0.843087 1.83177 0.845097 1.83429 0.847357 1.83688L2.45216 3.73373L1.54053 10.6084C1.52395 10.7336 1.57242 10.8584 1.66893 10.9397L2.40763 11.5619C2.53169 11.6717 2.83042 11.7241 2.98194 11.4327L5.16036 6.65325L7.14166 8.82053L6.79486 10.3826C6.77243 10.4838 6.79327 10.5897 6.8527 10.6746L7.66883 11.8409C7.7717 12.0094 8.16479 12.1219 8.31586 11.7636L8.82638 10.4595C9.03204 10.6023 9.59512 10.9149 9.91102 10.599C10.2155 10.2946 10.0327 9.79397 9.87838 9.51356L11.2265 9.14282C11.487 9.0726 11.6175 8.74697 11.3711 8.50758L10.2964 7.57359C10.2181 7.50554 10.1152 7.47348 10.012 7.48528L8.42251 7.66718L6.47453 5.47032L11.4547 3.80293C11.6371 3.74208 11.808 3.50561 11.6436 3.24536L11.1026 2.44582C11.0319 2.34127 10.9122 2.28092 10.7865 2.28343L3.85396 2.4716L2.1355 0.676964C2.13307 0.674536 2.13081 0.672025 2.12822 0.669682C1.57442 0.122248 0.901694 -0.148951 0.500081 0.0835049C0.236661 0.236099 0.11411 0.920481 0.840837 1.82909L0.840911 1.8291Z" fill="#505050"/>
</svg>
